<?xml version="1.0" encoding="utf-8"?>
<!-- Uploaded to: SVG Repo, www.svgrepo.com, Generator: SVG Repo Mixer Tools -->
<svg width="800px" height="800px" viewBox="0 0 1024 1024" class="icon"  version="1.1" xmlns="http://www.w3.org/2000/svg"><path d="M882.6 444.9h-21.9L787 199.7c-7.1-23.6-28.4-39.4-53-39.4H288.1c-24.6 0-45.9 15.8-53 39.4l-73.8 245.2h-21.9c-30.5 0-55.3 24.8-55.3 55.3v221.4c0 30.5 24.8 55.3 55.3 55.3h24.4v44.5c0 21.8 17.7 39.5 39.5 39.5s39.5-17.7 39.5-39.5V777h536.4v44.5c0 21.8 17.7 39.5 39.5 39.5s39.5-17.7 39.5-39.5V777h24.3c30.5 0 55.3-24.8 55.3-55.3V500.3c0.2-30.5-24.6-55.4-55.2-55.4zM280.5 213.4c1-3.4 4.1-5.6 7.6-5.6H734c3.5 0 6.6 2.3 7.6 5.6L811.2 445H210.8l69.7-231.6z m610.1 508.2c0 4.4-3.6 7.9-7.9 7.9H139.4c-4.4 0-7.9-3.5-7.9-7.9V500.3c0-4.4 3.6-7.9 7.9-7.9h743.2c4.4 0 7.9 3.5 7.9 7.9v221.3zM250.7 563.5c-26.2 0-47.4 21.2-47.4 47.4s21.2 47.4 47.4 47.4 47.4-21.2 47.4-47.4c0.1-26.1-21.2-47.4-47.4-47.4z m528.5 0c-26.2 0-47.4 21.2-47.4 47.4s21.2 47.4 47.4 47.4 47.4-21.2 47.4-47.4c0.1-26.1-21.2-47.4-47.4-47.4z" fill="#5F9BEB" /></svg>